<svg xmlns="http://www.w3.org/2000/svg" xmlns:xlink="http://www.w3.org/1999/xlink" width="40" zoomAndPan="magnify" viewBox="0 0 30 30.000001" height="40" preserveAspectRatio="xMidYMid meet" version="1.0"><defs><clipPath id="fde7a39c76"><path d="M 2.660156 2.539062 L 28.066406 2.539062 L 28.066406 27.945312 L 2.660156 27.945312 Z M 2.660156 2.539062 " clip-rule="nonzero"/></clipPath></defs><g clip-path="url(#fde7a39c76)"><path fill="#000000" d="M 22.394531 27.882812 L 8.214844 27.882812 C 7.847656 27.882812 7.480469 27.847656 7.121094 27.777344 C 6.757812 27.703125 6.40625 27.597656 6.066406 27.457031 C 5.726562 27.3125 5.40625 27.140625 5.097656 26.9375 C 4.792969 26.730469 4.507812 26.5 4.25 26.238281 C 3.988281 25.976562 3.753906 25.695312 3.550781 25.386719 C 3.34375 25.082031 3.171875 24.757812 3.03125 24.417969 C 2.890625 24.078125 2.785156 23.726562 2.710938 23.367188 C 2.640625 23.003906 2.601562 22.640625 2.601562 22.273438 L 2.601562 8.09375 C 2.601562 7.726562 2.640625 7.359375 2.710938 7 C 2.785156 6.636719 2.890625 6.289062 3.03125 5.945312 C 3.171875 5.605469 3.34375 5.285156 3.550781 4.976562 C 3.753906 4.671875 3.988281 4.386719 4.25 4.128906 C 4.507812 3.867188 4.792969 3.632812 5.097656 3.429688 C 5.40625 3.222656 5.726562 3.050781 6.066406 2.910156 C 6.40625 2.769531 6.757812 2.664062 7.121094 2.589844 C 7.480469 2.519531 7.847656 2.480469 8.214844 2.480469 L 22.394531 2.480469 C 22.761719 2.480469 23.125 2.519531 23.488281 2.589844 C 23.847656 2.664062 24.199219 2.769531 24.539062 2.910156 C 24.878906 3.050781 25.203125 3.222656 25.507812 3.429688 C 25.816406 3.632812 26.097656 3.867188 26.359375 4.128906 C 26.621094 4.386719 26.851562 4.671875 27.058594 4.976562 C 27.261719 5.285156 27.433594 5.605469 27.578125 5.945312 C 27.71875 6.289062 27.824219 6.636719 27.894531 7 C 27.96875 7.359375 28.003906 7.726562 28.003906 8.09375 L 28.003906 22.273438 C 28.003906 22.640625 27.96875 23.003906 27.894531 23.367188 C 27.824219 23.726562 27.71875 24.078125 27.578125 24.417969 C 27.433594 24.757812 27.261719 25.082031 27.058594 25.386719 C 26.851562 25.695312 26.621094 25.976562 26.359375 26.238281 C 26.097656 26.5 25.816406 26.730469 25.507812 26.9375 C 25.203125 27.140625 24.878906 27.3125 24.539062 27.457031 C 24.199219 27.597656 23.847656 27.703125 23.488281 27.777344 C 23.125 27.847656 22.761719 27.882812 22.394531 27.882812 Z M 8.214844 4.253906 C 7.707031 4.253906 7.214844 4.351562 6.746094 4.546875 C 6.277344 4.742188 5.859375 5.019531 5.5 5.378906 C 5.140625 5.738281 4.863281 6.15625 4.667969 6.625 C 4.472656 7.09375 4.375 7.585938 4.375 8.09375 L 4.375 22.273438 C 4.375 22.78125 4.472656 23.269531 4.667969 23.742188 C 4.863281 24.210938 5.140625 24.625 5.5 24.984375 C 5.859375 25.347656 6.277344 25.625 6.746094 25.820312 C 7.214844 26.011719 7.707031 26.113281 8.214844 26.113281 L 22.394531 26.113281 C 22.902344 26.113281 23.390625 26.011719 23.863281 25.820312 C 24.332031 25.625 24.746094 25.347656 25.105469 24.984375 C 25.46875 24.625 25.746094 24.210938 25.941406 23.742188 C 26.132812 23.269531 26.234375 22.78125 26.234375 22.273438 L 26.234375 8.09375 C 26.234375 7.585938 26.132812 7.09375 25.941406 6.625 C 25.746094 6.15625 25.46875 5.738281 25.105469 5.378906 C 24.746094 5.019531 24.332031 4.742188 23.863281 4.546875 C 23.390625 4.351562 22.902344 4.253906 22.394531 4.253906 Z M 8.214844 4.253906 " fill-opacity="1" fill-rule="nonzero"/></g><path fill="#000000" d="M 15.304688 20.796875 C 15.058594 20.796875 14.851562 20.707031 14.675781 20.535156 C 14.503906 20.363281 14.417969 20.152344 14.417969 19.910156 L 14.417969 10.457031 C 14.417969 10.210938 14.503906 10.003906 14.675781 9.828125 C 14.851562 9.65625 15.058594 9.570312 15.304688 9.570312 C 15.546875 9.570312 15.757812 9.65625 15.929688 9.828125 C 16.101562 10.003906 16.191406 10.210938 16.191406 10.457031 L 16.191406 19.910156 C 16.191406 20.152344 16.101562 20.363281 15.929688 20.535156 C 15.757812 20.707031 15.546875 20.796875 15.304688 20.796875 Z M 15.304688 20.796875 " fill-opacity="1" fill-rule="nonzero"/><path fill="#000000" d="M 20.03125 16.070312 L 10.578125 16.070312 C 10.332031 16.070312 10.125 15.984375 9.949219 15.808594 C 9.777344 15.636719 9.691406 15.425781 9.691406 15.183594 C 9.691406 14.9375 9.777344 14.730469 9.949219 14.554688 C 10.125 14.382812 10.332031 14.296875 10.578125 14.296875 L 20.03125 14.296875 C 20.273438 14.296875 20.484375 14.382812 20.65625 14.554688 C 20.828125 14.730469 20.917969 14.9375 20.917969 15.183594 C 20.917969 15.425781 20.828125 15.636719 20.65625 15.808594 C 20.484375 15.984375 20.273438 16.070312 20.03125 16.070312 Z M 20.03125 16.070312 " fill-opacity="1" fill-rule="nonzero"/></svg>